<svg width="69" height="19" viewBox="0 0 69 19" fill="none" xmlns="http://www.w3.org/2000/svg">
<path d="M9.228 9.932C10.124 10.092 10.884 10.564 11.508 11.348C12.132 12.132 12.444 13.02 12.444 14.012C12.444 14.86 12.22 15.628 11.772 16.316C11.34 16.988 10.708 17.524 9.876 17.924C9.044 18.308 8.076 18.5 6.972 18.5H0.3V1.82H6.66C7.796 1.82 8.772 2.012 9.588 2.396C10.404 2.78 11.02 3.3 11.436 3.956C11.852 4.596 12.06 5.316 12.06 6.116C12.06 7.076 11.804 7.876 11.292 8.516C10.78 9.156 10.092 9.628 9.228 9.932ZM3.036 8.828H6.42C7.316 8.828 8.012 8.628 8.508 8.228C9.02 7.812 9.276 7.22 9.276 6.452C9.276 5.7 9.02 5.116 8.508 4.7C8.012 4.268 7.316 4.052 6.42 4.052H3.036V8.828ZM6.732 16.268C7.66 16.268 8.388 16.044 8.916 15.596C9.444 15.148 9.708 14.524 9.708 13.724C9.708 12.908 9.428 12.26 8.868 11.78C8.308 11.3 7.564 11.06 6.636 11.06H3.036V16.268H6.732ZM27.5372 11.564C27.5372 12.06 27.5052 12.508 27.4412 12.908H17.3372C17.4172 13.964 17.8092 14.812 18.5132 15.452C19.2172 16.092 20.0812 16.412 21.1052 16.412C22.5772 16.412 23.6172 15.796 24.2252 14.564H27.1772C26.7772 15.78 26.0492 16.78 24.9932 17.564C23.9532 18.332 22.6572 18.716 21.1052 18.716C19.8412 18.716 18.7052 18.436 17.6972 17.876C16.7052 17.3 15.9212 16.5 15.3452 15.476C14.7852 14.436 14.5052 13.236 14.5052 11.876C14.5052 10.516 14.7772 9.324 15.3212 8.3C15.8812 7.26 16.6572 6.46 17.6492 5.9C18.6572 5.34 19.8092 5.06 21.1052 5.06C22.3532 5.06 23.4652 5.332 24.4412 5.876C25.4172 6.42 26.1772 7.188 26.7212 8.18C27.2652 9.156 27.5372 10.284 27.5372 11.564ZM24.6812 10.7C24.6652 9.692 24.3052 8.884 23.6012 8.276C22.8972 7.668 22.0252 7.364 20.9852 7.364C20.0412 7.364 19.2332 7.668 18.5612 8.276C17.8892 8.868 17.4892 9.676 17.3612 10.7H24.6812Z" fill="#91AFBA"/>
<path d="M32.9657 16.292H38.6057V18.5H30.2297V1.82H32.9657V16.292ZM42.2858 3.524C41.7898 3.524 41.3738 3.356 41.0378 3.02C40.7018 2.684 40.5338 2.268 40.5338 1.772C40.5338 1.276 40.7018 0.859999 41.0378 0.524C41.3738 0.187999 41.7898 0.019999 42.2858 0.019999C42.7658 0.019999 43.1738 0.187999 43.5098 0.524C43.8458 0.859999 44.0138 1.276 44.0138 1.772C44.0138 2.268 43.8458 2.684 43.5098 3.02C43.1738 3.356 42.7658 3.524 42.2858 3.524ZM43.6298 5.276V18.5H40.8938V5.276H43.6298ZM50.4139 7.508V14.828C50.4139 15.324 50.5259 15.684 50.7499 15.908C50.9899 16.116 51.3899 16.22 51.9499 16.22H53.6299V18.5H51.4699C50.2379 18.5 49.2939 18.212 48.6379 17.636C47.9819 17.06 47.6539 16.124 47.6539 14.828V7.508H46.0939V5.276H47.6539V1.988H50.4139V5.276H53.6299V7.508H50.4139ZM55.2396 11.828C55.2396 10.5 55.5116 9.324 56.0556 8.3C56.6156 7.276 57.3676 6.484 58.3116 5.924C59.2716 5.348 60.3276 5.06 61.4796 5.06C62.5196 5.06 63.4236 5.268 64.1916 5.684C64.9756 6.084 65.5996 6.588 66.0636 7.196V5.276H68.8236V18.5H66.0636V16.532C65.5996 17.156 64.9676 17.676 64.1676 18.092C63.3676 18.508 62.4556 18.716 61.4316 18.716C60.2956 18.716 59.2556 18.428 58.3116 17.852C57.3676 17.26 56.6156 16.444 56.0556 15.404C55.5116 14.348 55.2396 13.156 55.2396 11.828ZM66.0636 11.876C66.0636 10.964 65.8716 10.172 65.4876 9.5C65.1196 8.828 64.6316 8.316 64.0236 7.964C63.4156 7.612 62.7596 7.436 62.0556 7.436C61.3516 7.436 60.6956 7.612 60.0876 7.964C59.4796 8.3 58.9836 8.804 58.5996 9.476C58.2316 10.132 58.0476 10.916 58.0476 11.828C58.0476 12.74 58.2316 13.54 58.5996 14.228C58.9836 14.916 59.4796 15.444 60.0876 15.812C60.7116 16.164 61.3676 16.34 62.0556 16.34C62.7596 16.34 63.4156 16.164 64.0236 15.812C64.6316 15.46 65.1196 14.948 65.4876 14.276C65.8716 13.588 66.0636 12.788 66.0636 11.876Z" fill="black"/>
</svg>
