<svg width="40" height="40" viewBox="0 0 40 40" fill="none" xmlns="http://www.w3.org/2000/svg">
<rect x="0.5" y="0.5" width="39" height="39" rx="11.5" stroke="black"/>
<path fill-rule="evenodd" clip-rule="evenodd" d="M20 10C25.514 10 30 14.486 30 20C30 25.514 25.514 30 20 30C14.486 30 10 25.514 10 20C10 14.486 14.486 10 20 10ZM20 11.5C15.313 11.5 11.5 15.313 11.5 20C11.5 24.687 15.313 28.5 20 28.5C24.687 28.5 28.5 24.687 28.5 20C28.5 15.313 24.687 11.5 20 11.5ZM19.6612 15.0954C20.0762 15.0954 20.4112 15.4314 20.4112 15.8454V20.2674L23.8162 22.2974C24.1712 22.5104 24.2882 22.9704 24.0762 23.3264C23.9352 23.5614 23.6862 23.6924 23.4312 23.6924C23.3002 23.6924 23.1682 23.6584 23.0472 23.5874L19.2772 21.3384C19.0512 21.2024 18.9112 20.9574 18.9112 20.6934V15.8454C18.9112 15.4314 19.2472 15.0954 19.6612 15.0954Z" fill="black"/>
</svg>
