<svg width="20" height="19" viewBox="0 0 20 19" fill="none" xmlns="http://www.w3.org/2000/svg">
<path d="M9.85825 6.84784L12.4999 9.25219V9.13045C12.4999 8.52506 12.2365 7.94447 11.7677 7.5164C11.2988 7.08833 10.663 6.84784 9.99992 6.84784H9.85825ZM6.27492 7.45654L7.56658 8.63588C7.52492 8.79567 7.49992 8.95545 7.49992 9.13045C7.49992 9.73584 7.76331 10.3164 8.23215 10.7445C8.70099 11.1726 9.33688 11.4131 9.99992 11.4131C10.1833 11.4131 10.3666 11.3902 10.5416 11.3522L11.8333 12.5315C11.2749 12.7826 10.6583 12.9348 9.99992 12.9348C8.89485 12.9348 7.83504 12.534 7.05364 11.8205C6.27224 11.1071 5.83325 10.1394 5.83325 9.13045C5.83325 8.52936 5.99992 7.96632 6.27492 7.45654ZM1.66659 3.24893L3.56659 4.98371L3.94159 5.3261C2.56659 6.31523 1.48325 7.60871 0.833252 9.13045C2.27492 12.4707 5.83325 14.837 9.99992 14.837C11.2916 14.837 12.5249 14.6087 13.6499 14.1978L14.0083 14.5174L16.4416 16.7391L17.4999 15.7728L2.72492 2.28262M9.99992 5.3261C11.105 5.3261 12.1648 5.72692 12.9462 6.44037C13.7276 7.15382 14.1666 8.12147 14.1666 9.13045C14.1666 9.61741 14.0583 10.0891 13.8666 10.5152L16.3083 12.7446C17.5583 11.7935 18.5583 10.5457 19.1666 9.13045C17.7249 5.79023 14.1666 3.42393 9.99992 3.42393C8.83325 3.42393 7.71658 3.61415 6.66658 3.95654L8.47492 5.59241C8.94992 5.42501 9.45825 5.3261 9.99992 5.3261Z" fill="#B8BCCA"/>
</svg>
