<svg width="20" height="19" viewBox="0 0 22 14" fill="none" xmlns="http://www.w3.org/2000/svg">
<path d="M10.3787 3.9375L13.4167 6.7025V6.5625C13.4167 5.86631 13.1138 5.19863 12.5746 4.70634C12.0354 4.21406 11.3042 3.9375 10.5417 3.9375H10.3787ZM6.25792 4.6375L7.74333 5.99375C7.69542 6.1775 7.66667 6.36125 7.66667 6.5625C7.66667 7.25869 7.96957 7.92637 8.50873 8.41866C9.0479 8.91094 9.77917 9.1875 10.5417 9.1875C10.7525 9.1875 10.9633 9.16125 11.1646 9.1175L12.65 10.4738C12.0079 10.7625 11.2987 10.9375 10.5417 10.9375C9.27084 10.9375 8.05206 10.4766 7.15345 9.65609C6.25483 8.83562 5.75 7.72282 5.75 6.5625C5.75 5.87125 5.94167 5.22375 6.25792 4.6375ZM3.57458 2.1875C1.99333 3.325 0.7475 4.8125 0 6.5625C1.65792 10.4038 5.75 13.125 10.5417 13.125C12.0271 13.125 13.4454 12.8625 14.7392 12.39L3.57458 2.1875ZM10.5417 2.1875C11.8125 2.1875 13.0313 2.64844 13.9299 3.46891C14.8285 4.28938 15.3333 5.40218 15.3333 6.5625C15.3333 7.1225 15.2087 7.665 14.9883 8.155L17.7962 10.7188C19.2337 9.625 20.3837 8.19 21.0833 6.5625C19.4254 2.72125 15.3333 0 10.5417 0C9.2 0 7.91583 0.21875 6.70833 0.6125L8.78792 2.49375C9.33417 2.30125 9.91875 2.1875 10.5417 2.1875Z" fill="#B8BCCA"/>
<circle cx="10.5835" cy="6.8125" r="3" fill="#B8BCCA"/>
<path d="M9.0942 2.41837C7.11639 3.20073 7.05761 3.34158 6.06796 4.805C4.72507 4.75389 3.52874 4.03369 3.57374 2.85126C3 1.5 8.09876 0.0225607 7.5 0.5C8.4926 -0.291565 9.1392 1.23594 9.0942 2.41837Z" fill="#B8BCCA"/>
<path d="M12.5 10.5C14.3731 9.48907 14.1854 9.58231 15.0835 7.81292C16.3766 7.81292 18.2943 10.3391 17.5833 10.8131C16.0833 11.8131 14.0251 12.9026 14.5833 12.313C13.6579 13.2906 12.5 11.4998 12.5 10.5Z" fill="#B8BCCA"/>
<path d="M6.77393 0.724321C6.73575 0.724321 6.70114 0.720255 6.66875 0.744549C6.64683 0.760983 6.73197 0.726844 6.74561 0.71623C6.78468 0.685845 6.87381 0.685886 6.91047 0.715218" stroke="#B8BCCA" stroke-width="0.2"/>
<path d="M17.6211 10.6797C17.6385 10.6691 17.6594 10.6667 17.6766 10.6562C17.6909 10.6476 17.6985 10.6374 17.7101 10.6259C17.7291 10.6068 17.7426 10.5779 17.7656 10.5625" stroke="#B8BCCA" stroke-width="0.2"/>
</svg>
