<svg width="46" height="18" viewBox="0 0 46 18" fill="none" xmlns="http://www.w3.org/2000/svg">
<path d="M21.4375 8.79366V14.0699H19.7637V1.03994H24.203C24.7329 1.02887 25.2597 1.12285 25.7531 1.31646C26.2465 1.51007 26.6967 1.79947 27.0776 2.16796C27.4624 2.51408 27.7687 2.93856 27.9758 3.41287C28.1829 3.88718 28.2861 4.40033 28.2784 4.91784C28.2894 5.43811 28.1878 5.95461 27.9806 6.43194C27.7733 6.90928 27.4653 7.33615 27.0776 7.68331C26.3013 8.42354 25.3431 8.79331 24.203 8.79262H21.4375V8.79366ZM21.4375 2.64412V7.19259H24.2446C24.5523 7.20172 24.8586 7.14651 25.1437 7.0305C25.4289 6.9145 25.6867 6.74025 25.9007 6.5189C26.1136 6.31194 26.2828 6.06441 26.3984 5.79092C26.5139 5.51744 26.5734 5.22356 26.5734 4.92667C26.5734 4.62978 26.5139 4.33591 26.3984 4.06243C26.2828 3.78894 26.1136 3.5414 25.9007 3.33445C25.6894 3.10844 25.4325 2.92992 25.147 2.81072C24.8614 2.69153 24.5539 2.63439 24.2446 2.64308H21.4375V2.64412Z" fill="#5F6368"/>
<path d="M32.1352 4.86328C33.3723 4.86328 34.3489 5.19389 35.0649 5.85511C35.7809 6.51633 36.1385 7.4229 36.1378 8.57484V14.0694H34.5368V12.8322H34.464C33.7709 13.8511 32.8491 14.3605 31.6985 14.3605C30.7164 14.3605 29.8947 14.0694 29.2335 13.4872C28.9162 13.22 28.6625 12.8853 28.4909 12.5076C28.3193 12.1299 28.2342 11.7187 28.2417 11.3039C28.2417 10.3814 28.5903 9.64776 29.2876 9.10298C29.9848 8.5582 30.9157 8.28512 32.0801 8.28373C33.074 8.28373 33.8925 8.46567 34.5357 8.82955V8.44696C34.5376 8.16419 34.4766 7.88455 34.357 7.6283C34.2374 7.37206 34.0623 7.14564 33.8443 6.96546C33.4017 6.5661 32.8249 6.3482 32.2287 6.35518C31.2937 6.35518 30.5539 6.74956 30.0091 7.5383L28.5348 6.6099C29.3458 5.44549 30.5459 4.86328 32.1352 4.86328ZM29.9696 11.3403C29.9684 11.5533 30.0182 11.7635 30.1148 11.9534C30.2114 12.1433 30.3519 12.3074 30.5247 12.4319C30.8949 12.7231 31.3544 12.8774 31.8253 12.8686C32.5317 12.8674 33.2087 12.5863 33.7082 12.0868C34.2626 11.5649 34.5399 10.9525 34.5399 10.2497C34.018 9.83385 33.2902 9.62592 32.3566 9.62592C31.6767 9.62592 31.1097 9.78984 30.6557 10.1177C30.1973 10.4504 29.9696 10.8548 29.9696 11.3403Z" fill="#5F6368"/>
<path d="M45.3283 5.1543L39.7391 17.9992H38.0112L40.0853 13.5048L36.4102 5.1543H38.2295L40.8859 11.5585H40.9222L43.5058 5.1543H45.3283Z" fill="#5F6368"/>
<path d="M14.6735 7.65682C14.6741 7.14671 14.631 6.6375 14.5446 6.13477H7.48535V9.01772H11.5286C11.4458 9.47817 11.2707 9.9171 11.0138 10.308C10.7568 10.699 10.4234 11.0339 10.0335 11.2925V13.1638H12.4466C13.8595 11.8612 14.6735 9.93469 14.6735 7.65682Z" fill="#4285F4"/>
<path d="M7.48593 14.9708C9.50597 14.9708 11.2068 14.3075 12.4471 13.1639L10.0341 11.2925C9.3625 11.7479 8.49751 12.0078 7.48593 12.0078C5.53346 12.0078 3.87626 10.6916 3.28366 8.91797H0.797852V10.8465C1.42088 12.0863 2.37623 13.1285 3.55723 13.8568C4.73824 14.5851 6.09842 14.9708 7.48593 14.9708Z" fill="#34A853"/>
<path d="M3.28288 8.91883C2.96959 7.98943 2.96959 6.98296 3.28288 6.05355V4.125H0.797071C0.272958 5.16793 0 6.31897 0 7.48619C0 8.65341 0.272958 9.80446 0.797071 10.8474L3.28288 8.91883Z" fill="#FBBC04"/>
<path d="M7.48593 2.9635C8.55343 2.94606 9.58492 3.34939 10.3574 4.08632L12.4939 1.94984C11.1392 0.677383 9.34443 -0.0212158 7.48593 0.000491118C6.09842 0.000554355 4.73824 0.386259 3.55723 1.11454C2.37623 1.84283 1.42088 2.88503 0.797852 4.12479L3.28366 6.05334C3.87626 4.2797 5.53346 2.9635 7.48593 2.9635Z" fill="#EA4335"/>
</svg>
