<svg width="27" height="27" viewBox="0 0 27 27" fill="none" xmlns="http://www.w3.org/2000/svg">
<path d="M1 10.5557C1 8.67005 1 7.72724 1.58579 7.14145C2.17157 6.55566 3.11438 6.55566 5 6.55566H5.16667H21.8333H22C23.8856 6.55566 24.8284 6.55566 25.4142 7.14145C26 7.72724 26 8.67005 26 10.5557V22.0001C26 23.8857 26 24.8285 25.4142 25.4143C24.8284 26.0001 23.8856 26.0001 22 26.0001H19.0556H7.94444H5C3.11438 26.0001 2.17157 26.0001 1.58579 25.4143C1 24.8285 1 23.8857 1 22.0001V10.5557Z" stroke="#91AFBA" stroke-width="2" stroke-linejoin="round"/>
<path d="M7.94446 6.55556V3C7.94446 1.89543 8.83989 1 9.94446 1H17.0556C18.1601 1 19.0556 1.89543 19.0556 3V6.55556" stroke="#91AFBA" stroke-width="2" stroke-linejoin="round"/>
<path d="M1 15C1.25852 16.6927 2.02082 18.2577 3.16052 19.5918C5.43697 22.2565 9.21912 24 13.5 24C17.7809 24 21.563 22.2565 23.8395 19.5918C24.9792 18.2577 25.7415 16.6927 26 15" stroke="#91AFBA" stroke-width="2" stroke-linecap="round"/>
<path d="M12.8055 14.8889H14.1944" stroke="#91AFBA" stroke-width="2" stroke-linecap="round" stroke-linejoin="round"/>
</svg>
