<svg width="22" height="22" viewBox="0 0 22 22" fill="none" xmlns="http://www.w3.org/2000/svg">
<path d="M18.7 3.34797C18.0676 3.29987 17.3572 3.29994 16.6307 3.30002L5.36944 3.30002C4.64291 3.29994 3.93246 3.29987 3.30005 3.34798L3.30005 3.30001C3.30005 1.47746 4.77751 5.84717e-07 6.60005 6.64382e-07L15.4 0C17.2226 7.9664e-08 18.7 1.47746 18.7 3.30001L18.7 3.34797Z" fill="#FF6B6B"/>
<path fill-rule="evenodd" clip-rule="evenodd" d="M9.82761 11C9.85167 11 9.87581 11 9.90003 11L12.1 11C12.1242 11 12.1484 11 12.1724 11C13.1476 10.9999 13.9878 10.9999 14.6606 11.0904C15.3817 11.1873 16.0728 11.4059 16.6335 11.9666C17.1941 12.5272 17.4127 13.2184 17.5097 13.9394C17.6001 14.6123 17.6001 15.4525 17.6 16.4276L17.6 16.5724C17.6001 17.5476 17.6001 18.3878 17.5097 19.0606C17.4127 19.7817 17.1941 20.4729 16.6335 21.0335C16.0728 21.5941 15.3817 21.8127 14.6606 21.9097C13.9878 22.0001 13.1476 22.0001 12.1724 22L9.82761 22C8.85248 22.0001 8.01228 22.0001 7.33946 21.9097C6.61839 21.8127 5.9272 21.5941 5.36658 21.0335C4.80595 20.4729 4.58733 19.7817 4.49038 19.0606C4.39993 18.3878 4.39997 17.5476 4.40003 16.5724C4.40003 16.5484 4.40003 16.5242 4.40003 16.5C4.40003 16.4758 4.40003 16.4517 4.40003 16.4276C4.39997 15.4525 4.39993 14.6123 4.49038 13.9394C4.58733 13.2184 4.80595 12.5272 5.36658 11.9666C5.9272 11.4059 6.61839 11.1873 7.33946 11.0904C8.01228 10.9999 8.85248 10.9999 9.82761 11Z" fill="#FF6B6B"/>
<path d="M5.42759 4.40015C4.45245 4.40009 3.61226 4.40005 2.93944 4.49051C2.21837 4.58745 1.52718 4.80607 0.966554 5.3667C0.405925 5.92733 0.187305 6.61852 0.090361 7.33959C-9.78641e-05 8.01242 -5.17384e-05 8.85261 2.76909e-06 9.82775L2.66659e-06 12.1726C-5.19262e-05 13.1477 -9.81181e-05 13.9879 0.0903607 14.6607C0.187307 15.3818 0.405925 16.073 0.966553 16.6336C1.59112 17.2582 2.44971 17.4768 3.30368 17.5491C3.29994 17.2492 3.29997 16.9415 3.3 16.6308C3.3 15.6861 3.27401 14.7314 3.40018 13.793C3.51342 12.9507 3.78933 11.9883 4.58874 11.1889C5.38816 10.3895 6.35054 10.1136 7.19287 10.0003C7.93934 9.89998 8.84125 9.90007 9.76938 9.90017L12.2306 9.90017C13.1588 9.90007 14.0607 9.89998 14.8071 10.0003C15.6495 10.1136 16.6119 10.3895 17.4113 11.1889C18.2107 11.9883 18.4866 12.9507 18.5998 13.793C18.726 14.7314 18.7 15.6861 18.7 16.6308C18.7 16.9415 18.7001 17.2492 18.6963 17.5491C19.5503 17.4768 20.4089 17.2582 21.0334 16.6336C21.5941 16.073 21.8127 15.3818 21.9096 14.6607C22.0001 13.9879 22.0001 13.1477 22 12.1726L22 9.82778C22.0001 8.85264 22.0001 8.01242 21.9096 7.33959C21.8127 6.61852 21.5941 5.92733 21.0334 5.3667C20.4728 4.80607 19.7816 4.58745 19.0606 4.49051C18.3877 4.40005 17.5475 4.4001 16.5724 4.40015L5.42759 4.40015Z" fill="#FF6B6B"/>
</svg>
