<svg width="31" height="32" viewBox="0 0 31 32" fill="none" xmlns="http://www.w3.org/2000/svg">
<g clip-path="url(#clip0_441_8715)">
<path d="M15.5212 0.575439C9.09377 0.575439 3.8833 5.78588 3.8833 12.2133C3.8833 14.3628 4.30403 16.5829 5.51139 18.183L15.5212 31.4489L25.5309 18.183C26.6276 16.7296 27.159 14.1603 27.159 12.2133C27.159 5.78588 21.9486 0.575439 15.5212 0.575439ZM15.5212 7.31582C18.2256 7.31582 20.4186 9.50889 20.4186 12.2133C20.4186 14.9177 18.2256 17.1108 15.5212 17.1108C12.8168 17.1108 10.6237 14.9177 10.6237 12.2133C10.6237 9.50889 12.8168 7.31582 15.5212 7.31582Z" fill="#DD5471"/>
</g>
<defs>
<clipPath id="clip0_441_8715">
<rect width="30.8735" height="30.8735" fill="white" transform="translate(0.0844727 0.575317)"/>
</clipPath>
</defs>
</svg>
