<svg width="33" height="20" viewBox="0 0 33 20" fill="none" xmlns="http://www.w3.org/2000/svg">
<path d="M20.548 17.8625H11.7988V2.13867H20.548V17.8625Z" fill="#FF5F00"/>
<path d="M12.3593 10C12.3593 6.81035 13.8528 3.9691 16.1784 2.13809C14.4777 0.799161 12.3314 5.33497e-07 9.99873 5.33497e-07C4.47644 5.33497e-07 0 4.47708 0 10C0 15.5229 4.47644 20 9.99873 20C12.3314 20 14.4777 19.2008 16.1784 17.8619C13.8528 16.0309 12.3593 13.1896 12.3593 10Z" fill="#EB001B"/>
<path d="M32.348 10C32.348 15.5229 27.8715 20 22.3492 20C20.0166 20 17.8703 19.2008 16.1689 17.8619C18.4952 16.0309 19.9886 13.1896 19.9886 10C19.9886 6.81035 18.4952 3.9691 16.1689 2.13809C17.8703 0.799161 20.0166 5.33497e-07 22.3492 5.33497e-07C27.8715 5.33497e-07 32.348 4.47708 32.348 10Z" fill="#F79E1B"/>
<path d="M7.5239 10.0641C7.5239 9.62731 7.81014 9.26847 8.27788 9.26847C8.72479 9.26847 9.02651 9.61184 9.02651 10.0641C9.02651 10.5164 8.72479 10.8597 8.27788 10.8597C7.81014 10.8597 7.5239 10.5009 7.5239 10.0641ZM9.53591 10.0641V8.82155H8.99556V9.12326C8.82418 8.89951 8.56412 8.75907 8.21064 8.75907C7.51378 8.75907 6.96749 9.30536 6.96749 10.0641C6.96749 10.8234 7.51378 11.3691 8.21064 11.3691C8.56412 11.3691 8.82418 11.2287 8.99556 11.0049V11.3067H9.53591V10.0641ZM27.7957 10.0641C27.7957 9.62731 28.0819 9.26847 28.5497 9.26847C28.9972 9.26847 29.2983 9.61184 29.2983 10.0641C29.2983 10.5164 28.9972 10.8597 28.5497 10.8597C28.0819 10.8597 27.7957 10.5009 27.7957 10.0641ZM29.8083 10.0641V7.82358H29.2674V9.12326C29.096 8.89951 28.8359 8.75907 28.4824 8.75907C27.7856 8.75907 27.2393 9.30536 27.2393 10.0641C27.2393 10.8234 27.7856 11.3691 28.4824 11.3691C28.8359 11.3691 29.096 11.2287 29.2674 11.0049V11.3067H29.8083V10.0641ZM16.2432 9.24288C16.5913 9.24288 16.8151 9.46128 16.8722 9.84571H15.5826C15.6404 9.48687 15.8582 9.24288 16.2432 9.24288ZM16.2539 8.75907C15.5255 8.75907 15.0161 9.2893 15.0161 10.0641C15.0161 10.8544 15.5463 11.3691 16.2902 11.3691C16.6645 11.3691 17.0073 11.2757 17.309 11.021L17.0442 10.6205C16.8359 10.7865 16.5705 10.8806 16.3211 10.8806C15.973 10.8806 15.6558 10.7193 15.5779 10.2718H17.4233C17.4286 10.2045 17.434 10.1367 17.434 10.0641C17.4286 9.2893 16.9502 8.75907 16.2539 8.75907ZM22.7785 10.0641C22.7785 9.62731 23.0647 9.26847 23.5325 9.26847C23.9794 9.26847 24.2811 9.61184 24.2811 10.0641C24.2811 10.5164 23.9794 10.8597 23.5325 10.8597C23.0647 10.8597 22.7785 10.5009 22.7785 10.0641ZM24.7905 10.0641V8.82155H24.2501V9.12326C24.0782 8.89951 23.8187 8.75907 23.4652 8.75907C22.7684 8.75907 22.2221 9.30536 22.2221 10.0641C22.2221 10.8234 22.7684 11.3691 23.4652 11.3691C23.8187 11.3691 24.0782 11.2287 24.2501 11.0049V11.3067H24.7905V10.0641ZM19.7269 10.0641C19.7269 10.8181 20.2517 11.3691 21.0527 11.3691C21.427 11.3691 21.6764 11.2858 21.9465 11.0728L21.6871 10.636C21.4842 10.7818 21.2711 10.8597 21.0366 10.8597C20.6052 10.8544 20.288 10.5426 20.288 10.0641C20.288 9.58565 20.6052 9.27382 21.0366 9.26847C21.2711 9.26847 21.4842 9.34642 21.6871 9.49222L21.9465 9.05542C21.6764 8.84238 21.427 8.75907 21.0527 8.75907C20.2517 8.75907 19.7269 9.31012 19.7269 10.0641ZM26.6936 8.75907C26.3818 8.75907 26.1788 8.90487 26.0384 9.12326V8.82155H25.5028V11.3067H26.0437V9.91355C26.0437 9.50234 26.2205 9.27382 26.574 9.27382C26.6835 9.27382 26.7977 9.2893 26.912 9.33631L27.0786 8.82691C26.959 8.7799 26.8031 8.75907 26.6936 8.75907ZM12.2085 9.01912C11.9484 8.84774 11.5902 8.75907 11.195 8.75907C10.5654 8.75907 10.1602 9.06078 10.1602 9.55471C10.1602 9.95996 10.4619 10.2099 11.0177 10.2879L11.273 10.3242C11.5693 10.3658 11.7092 10.4438 11.7092 10.5842C11.7092 10.7764 11.5116 10.8859 11.1427 10.8859C10.7683 10.8859 10.4982 10.7663 10.3161 10.6259L10.0614 11.0466C10.3577 11.265 10.732 11.3691 11.1373 11.3691C11.855 11.3691 12.2709 11.0311 12.2709 10.558C12.2709 10.1212 11.9436 9.89272 11.4027 9.81476L11.148 9.77787C10.9141 9.74692 10.7267 9.7005 10.7267 9.53388C10.7267 9.35178 10.9034 9.24288 11.1998 9.24288C11.517 9.24288 11.824 9.36249 11.9746 9.45592L12.2085 9.01912ZM19.1806 8.75907C18.8687 8.75907 18.6658 8.90487 18.526 9.12326V8.82155H17.9904V11.3067H18.5307V9.91355C18.5307 9.50234 18.7075 9.27382 19.0609 9.27382C19.1704 9.27382 19.2847 9.2893 19.399 9.33631L19.5656 8.82691C19.446 8.7799 19.2901 8.75907 19.1806 8.75907ZM14.5692 8.82155H13.6855V8.06757H13.1392V8.82155H12.6351V9.31548H13.1392V10.4491C13.1392 11.0258 13.3629 11.3691 14.0021 11.3691C14.2365 11.3691 14.5067 11.2965 14.6781 11.1769L14.5222 10.7139C14.3609 10.8074 14.1842 10.8544 14.0437 10.8544C13.7736 10.8544 13.6855 10.6878 13.6855 10.4384V9.31548H14.5692V8.82155ZM6.48963 11.3067V9.74692C6.48963 9.15957 6.11532 8.76442 5.5119 8.75907C5.19471 8.75371 4.86741 8.8525 4.6383 9.20122C4.46692 8.92569 4.19674 8.75907 3.81708 8.75907C3.55166 8.75907 3.2922 8.83703 3.08928 9.12803V8.82155H2.54834V11.3067H3.09404V9.92902C3.09404 9.49758 3.33326 9.26847 3.70282 9.26847C4.06166 9.26847 4.24316 9.50234 4.24316 9.92366V11.3067H4.78945V9.92902C4.78945 9.49758 5.0388 9.26847 5.39764 9.26847C5.76659 9.26847 5.94334 9.50234 5.94334 9.92366V11.3067H6.48963Z" fill="white"/>
</svg>
