<svg width="20" height="20" viewBox="0 0 20 20" fill="none" xmlns="http://www.w3.org/2000/svg">
<path d="M10.35 7.35C10.25 7.25 10.1333 7.2 10 7.2C9.86667 7.2 9.75 7.25 9.65 7.35L6.85 10.15C6.68333 10.3167 6.64167 10.5 6.725 10.7C6.80833 10.9 6.96667 11 7.2 11L12.8 11C13.0333 11 13.1917 10.9 13.275 10.7C13.3583 10.5 13.3167 10.3167 13.15 10.15L10.35 7.35ZM10 -8.74228e-07C11.3833 -7.53293e-07 12.6833 0.262666 13.9 0.788C15.1167 1.31333 16.175 2.02566 17.075 2.925C17.975 3.825 18.6873 4.88333 19.212 6.1C19.7367 7.31667 19.9993 8.61667 20 10C20 11.3833 19.7373 12.6833 19.212 13.9C18.6867 15.1167 17.9743 16.175 17.075 17.075C16.175 17.975 15.1167 18.6873 13.9 19.212C12.6833 19.7367 11.3833 19.9993 10 20C8.61667 20 7.31667 19.7373 6.1 19.212C4.88333 18.6867 3.825 17.9743 2.925 17.075C2.025 16.175 1.31233 15.1167 0.787001 13.9C0.261668 12.6833 -0.000666819 11.3833 8.74228e-07 10C9.95163e-07 8.61667 0.262668 7.31667 0.788001 6.1C1.31333 4.88333 2.02567 3.825 2.925 2.925C3.825 2.025 4.88333 1.31233 6.1 0.786999C7.31667 0.261666 8.61667 -0.000668567 10 -8.74228e-07ZM10 2C7.78333 2 5.89567 2.779 4.337 4.337C2.77833 5.895 1.99933 7.78267 2 10C2 12.2167 2.779 14.1043 4.337 15.663C5.895 17.2217 7.78267 18.0007 10 18C12.2167 18 14.1043 17.221 15.663 15.663C17.2217 14.105 18.0007 12.2173 18 10C18 7.78333 17.221 5.89567 15.663 4.337C14.105 2.77833 12.2173 1.99933 10 2Z" fill="#23272E"/>
</svg>
