<svg width="98" height="19" viewBox="0 0 98 19" fill="none" xmlns="http://www.w3.org/2000/svg">
<path d="M34.0579 1.5293H29.0958C28.7562 1.5293 28.4674 1.77599 28.4145 2.1112L26.4076 14.8354C26.3676 15.0865 26.5621 15.3129 26.8168 15.3129H29.1857C29.5253 15.3129 29.8141 15.0662 29.867 14.7302L30.4083 11.2983C30.4606 10.9624 30.7501 10.7157 31.0889 10.7157H32.6597C35.9284 10.7157 37.8149 9.13394 38.3075 5.9995C38.5296 4.62819 38.317 3.55072 37.6749 2.79613C36.9696 1.96754 35.7187 1.5293 34.0579 1.5293ZM34.6304 6.17654C34.359 7.95708 32.9986 7.95708 31.6831 7.95708H30.9344L31.4597 4.63181C31.4909 4.43083 31.665 4.28282 31.8682 4.28282H32.2113C33.1074 4.28282 33.9527 4.28282 34.3895 4.79361C34.65 5.09835 34.7298 5.5511 34.6304 6.17654Z" fill="#253B80"/>
<path d="M48.8913 6.118H46.5151C46.3127 6.118 46.1378 6.26602 46.1066 6.467L46.0014 7.13162L45.8352 6.89073C45.3208 6.14413 44.1737 5.89453 43.0288 5.89453C40.4029 5.89453 38.1602 7.88331 37.7234 10.6731C37.4963 12.0647 37.8192 13.3954 38.6086 14.3234C39.3327 15.1767 40.3688 15.5322 41.6016 15.5322C43.7173 15.5322 44.8906 14.1718 44.8906 14.1718L44.7846 14.832C44.7447 15.0845 44.9392 15.3109 45.1924 15.3109H47.3328C47.6731 15.3109 47.9604 15.0642 48.0141 14.7283L49.2984 6.59543C49.339 6.34511 49.1453 6.118 48.8913 6.118ZM45.5791 10.7428C45.3498 12.1003 44.2724 13.0116 42.8982 13.0116C42.2081 13.0116 41.6567 12.7903 41.3026 12.3709C40.9515 11.9545 40.818 11.3617 40.9297 10.7014C41.1437 9.35548 42.2393 8.41442 43.5925 8.41442C44.2673 8.41442 44.8158 8.63862 45.1772 9.06162C45.5392 9.48898 45.6829 10.0854 45.5791 10.7428Z" fill="#253B80"/>
<path d="M61.5457 6.11719H59.1579C58.9301 6.11719 58.716 6.23038 58.5869 6.41975L55.2935 11.2709L53.8976 6.60912C53.8098 6.31744 53.5406 6.11719 53.2358 6.11719H50.8894C50.6042 6.11719 50.4061 6.39581 50.4968 6.66426L53.127 14.3828L50.6543 17.8735C50.4598 18.1485 50.6557 18.5265 50.9917 18.5265H53.3766C53.603 18.5265 53.8148 18.4162 53.9433 18.2305L61.8853 6.76657C62.0754 6.49231 61.8802 6.11719 61.5457 6.11719Z" fill="#253B80"/>
<path d="M69.4505 1.5293H64.4876C64.1488 1.5293 63.86 1.77599 63.807 2.1112L61.8001 14.8354C61.7602 15.0865 61.9547 15.3129 62.2079 15.3129H64.7546C64.9912 15.3129 65.1936 15.1402 65.2306 14.9051L65.8002 11.2983C65.8524 10.9624 66.1419 10.7157 66.4808 10.7157H68.0509C71.3203 10.7157 73.206 9.13394 73.6994 5.9995C73.9221 4.62819 73.7081 3.55072 73.066 2.79613C72.3615 1.96754 71.1113 1.5293 69.4505 1.5293ZM70.023 6.17654C69.7523 7.95708 68.3919 7.95708 67.0757 7.95708H66.3277L66.8537 4.63181C66.8849 4.43083 67.0576 4.28282 67.2615 4.28282H67.6047C68.5 4.28282 69.346 4.28282 69.7828 4.79361C70.0433 5.09835 70.1224 5.5511 70.023 6.17654Z" fill="#179BD7"/>
<path d="M84.2847 6.118H81.9099C81.7061 6.118 81.5326 6.26602 81.5022 6.467L81.397 7.13162L81.2301 6.89073C80.7157 6.14413 79.5693 5.89453 78.4243 5.89453C75.7985 5.89453 73.5565 7.88331 73.1197 10.6731C72.8933 12.0647 73.2148 13.3954 74.0042 14.3234C74.7297 15.1767 75.7644 15.5322 76.9971 15.5322C79.1129 15.5322 80.2861 14.1718 80.2861 14.1718L80.1802 14.832C80.1403 15.0845 80.3347 15.3109 80.5894 15.3109H82.7291C83.0679 15.3109 83.3567 15.0642 83.4097 14.7283L84.6947 6.59543C84.7338 6.34511 84.5394 6.118 84.2847 6.118ZM80.9725 10.7428C80.7447 12.1003 79.6658 13.0116 78.2915 13.0116C77.603 13.0116 77.0501 12.7903 76.696 12.3709C76.3448 11.9545 76.2128 11.3617 76.3231 10.7014C76.5386 9.35548 77.6327 8.41442 78.9859 8.41442C79.6607 8.41442 80.2092 8.63862 80.5705 9.06162C80.9341 9.48898 81.0777 10.0854 80.9725 10.7428Z" fill="#179BD7"/>
<path d="M87.0848 1.87707L85.0482 14.8342C85.0083 15.0853 85.2027 15.3116 85.4559 15.3116H87.5035C87.8438 15.3116 88.1326 15.0649 88.1848 14.729L90.1932 2.00549C90.2331 1.75445 90.0386 1.52734 89.7854 1.52734H87.4926C87.2902 1.52807 87.116 1.67608 87.0848 1.87707Z" fill="#179BD7"/>
<path d="M5.30709 18.1052L5.62402 16.1237L4.91804 16.1076H1.54688L3.88966 1.48603C3.89693 1.44189 3.92057 1.40073 3.95511 1.3715C3.98965 1.34228 4.03389 1.32617 4.07994 1.32617H9.7642C11.6513 1.32617 12.9536 1.71269 13.6335 2.47559C13.9522 2.83348 14.1553 3.20747 14.2534 3.61905C14.3564 4.0509 14.3583 4.56685 14.2577 5.19614L14.2504 5.24207V5.64529L14.5692 5.82304C14.8376 5.96322 15.0509 6.12367 15.2145 6.30739C15.4872 6.61338 15.6636 7.00229 15.7381 7.46337C15.8151 7.93757 15.7896 8.50184 15.6636 9.14067C15.5181 9.87554 15.283 10.5156 14.9655 11.0393C14.6734 11.5218 14.3013 11.9221 13.8595 12.2322C13.4378 12.5269 12.9366 12.7506 12.37 12.8937C11.821 13.0345 11.195 13.1055 10.5084 13.1055H10.066C9.74965 13.1055 9.44241 13.2176 9.20123 13.4186C8.95943 13.6238 8.79945 13.9042 8.75037 14.2108L8.71704 14.3891L8.15709 17.8815L8.13164 18.0098C8.12498 18.0503 8.11346 18.0706 8.09649 18.0843C8.08134 18.0968 8.05953 18.1052 8.03832 18.1052H5.30709Z" fill="#253B80"/>
<path d="M14.8712 5.28711C14.8542 5.39388 14.8348 5.50304 14.813 5.61517C14.0634 9.40343 11.4988 10.7121 8.22342 10.7121H6.55571C6.15515 10.7121 5.81761 10.9984 5.75519 11.3873L4.90134 16.7175L4.65955 18.2284C4.61895 18.4837 4.81893 18.7139 5.08072 18.7139H8.03859C8.38886 18.7139 8.6864 18.4634 8.74155 18.1234L8.77063 17.9755L9.32755 14.4968L9.3633 14.3059C9.41784 13.9647 9.71599 13.7142 10.0663 13.7142H10.5086C13.3744 13.7142 15.6178 12.569 16.2735 9.2549C16.5474 7.87047 16.4056 6.71449 15.6808 5.90148C15.4615 5.65633 15.1894 5.45293 14.8712 5.28711Z" fill="#179BD7"/>
<path d="M14.0877 4.97968C13.9732 4.94688 13.855 4.91705 13.7338 4.89021C13.612 4.86396 13.4872 4.8407 13.3587 4.82042C12.9091 4.74884 12.4164 4.71484 11.8886 4.71484H7.43326C7.32357 4.71484 7.21934 4.7393 7.12602 4.78344C6.92059 4.88067 6.76788 5.07214 6.73091 5.30655L5.78313 11.2153L5.75586 11.3877C5.81828 10.9988 6.15582 10.7125 6.55638 10.7125H8.22409C11.4995 10.7125 14.0641 9.40319 14.8137 5.61553C14.8361 5.50339 14.8549 5.39424 14.8719 5.28747C14.6822 5.18845 14.4768 5.10375 14.2556 5.03158C14.201 5.01368 14.1447 4.99638 14.0877 4.97968Z" fill="#222D65"/>
<path d="M6.73035 5.30715C6.76731 5.07274 6.92003 4.88127 7.12546 4.78464C7.21939 4.7405 7.32301 4.71604 7.4327 4.71604H11.888C12.4158 4.71604 12.9085 4.75004 13.3581 4.82162C13.4866 4.8419 13.6114 4.86516 13.7333 4.89141C13.8545 4.91825 13.9726 4.94807 14.0872 4.98088C14.1441 4.99758 14.2005 5.01488 14.2556 5.03218C14.4768 5.10435 14.6822 5.18965 14.8719 5.28807C15.0949 3.88812 14.8701 2.93495 14.1011 2.07184C13.2533 1.12164 11.7232 0.714844 9.76518 0.714844H4.08093C3.68097 0.714844 3.33979 1.00115 3.27798 1.39066L0.91035 16.1625C0.863688 16.4548 1.09276 16.7184 1.39212 16.7184H4.90145L5.78257 11.2159L6.73035 5.30715Z" fill="#253B80"/>
</svg>
