<svg width="40" height="40" viewBox="0 0 40 40" fill="none" xmlns="http://www.w3.org/2000/svg">
<rect x="0.5" y="0.5" width="39" height="39" rx="11.5" stroke="black"/>
<path fill-rule="evenodd" clip-rule="evenodd" d="M14.6577 10.0005C15.7747 10.0155 16.5707 10.8525 17.5777 11.9115C17.8267 12.1725 18.0957 12.4575 18.3967 12.7575C19.8557 14.2175 19.4407 15.4085 19.1057 16.3645C18.7417 17.4075 18.4267 18.3075 20.3127 20.1935C22.1987 22.0795 23.0977 21.7645 24.1397 21.3975C25.0967 21.0635 26.2847 20.6455 27.7467 22.1055C28.0437 22.4025 28.3237 22.6685 28.5837 22.9155C29.6467 23.9275 30.4867 24.7265 30.5008 25.8465C30.5117 26.8005 29.9317 27.7745 28.4997 29.2065L27.8657 28.7765L28.4027 29.2995C28.0857 29.6245 27.2427 30.4905 25.5917 30.5005H25.5617C23.0697 30.5005 19.8207 28.5165 15.9047 24.6015C11.9727 20.6705 9.98566 17.4115 10.0006 14.9145C10.0097 13.2645 10.8747 12.4195 11.1997 12.1025L11.2274 12.0722L11.2947 12.0045C12.7297 10.5695 13.7157 9.97954 14.6577 10.0005ZM14.6387 11.5005H14.6307C14.1816 11.5005 13.4996 11.9505 12.5485 12.8744L12.3575 13.062L12.3597 13.0615C12.3597 13.0615 12.3433 13.0803 12.3155 13.1086L12.2487 13.1755C12.0067 13.4105 11.5057 13.8995 11.5006 14.9225C11.4927 16.3535 12.4337 19.0105 16.9647 23.5405C21.4737 28.0485 24.1267 29.0005 25.5617 29.0005H25.5827C26.6057 28.9945 27.0937 28.4935 27.3287 28.2525C27.3997 28.1795 27.4577 28.1245 27.4987 28.0915C28.4957 27.0885 29.0057 26.3435 29.0007 25.8645C28.9947 25.3765 28.3877 24.8005 27.5487 24.0015C27.2817 23.7485 26.9917 23.4715 26.6857 23.1655C25.8917 22.3745 25.5007 22.5095 24.6357 22.8135C23.4407 23.2325 21.8037 23.8065 19.2527 21.2535C16.7007 18.7025 17.2727 17.0655 17.6897 15.8695C17.9917 15.0055 18.1297 14.6125 17.3367 13.8185C17.0267 13.5085 16.7477 13.2145 16.4907 12.9445C15.6967 12.1105 15.1237 11.5075 14.6387 11.5005ZM23.2468 13.558C25.3278 13.962 26.9348 15.568 27.3398 17.65C27.4188 18.058 27.1538 18.451 26.7478 18.53C26.6988 18.539 26.6508 18.544 26.6028 18.544C26.2508 18.544 25.9378 18.296 25.8678 17.938C25.5798 16.458 24.4388 15.317 22.9608 15.03C22.5538 14.951 22.2888 14.558 22.3678 14.151C22.4468 13.744 22.8468 13.478 23.2468 13.558ZM23.1869 10.0062C27.2649 10.4592 30.4319 13.6222 30.8889 17.6992C30.9349 18.1112 30.6389 18.4822 30.2279 18.5282C30.1999 18.5312 30.1709 18.5332 30.1429 18.5332C29.7659 18.5332 29.4419 18.2502 29.3989 17.8672C29.0199 14.4912 26.3979 11.8712 23.0209 11.4962C22.6099 11.4502 22.3129 11.0802 22.3589 10.6682C22.4039 10.2572 22.7709 9.95424 23.1869 10.0062Z" fill="black"/>
</svg>
