<svg xmlns="http://www.w3.org/2000/svg" xmlns:xlink="http://www.w3.org/1999/xlink" viewBox="0 0 120.33 111.37"><defs><style>.cls-1,.cls-5,.cls-6{fill:none;}.cls-2{fill:#3a86d4;}.cls-11,.cls-2,.cls-8{opacity:0.8;}.cls-3{opacity:0.5;}.cls-4{clip-path:url(#clip-path);}.cls-5,.cls-6{stroke:#fff;stroke-miterlimit:10;}.cls-5{stroke-width:10px;}.cls-6{stroke-width:3px;}.cls-7{fill:#2474c9;}.cls-8{fill:#13639e;}.cls-9{clip-path:url(#clip-path-2);}.cls-10{fill:#15559b;}.cls-11{fill:#34d2f7;}.cls-12{clip-path:url(#clip-path-3);}.cls-13{fill:#20b2fd;}</style><clipPath id="clip-path" transform="translate(11.73)"><polygon class="cls-1" points="84.15 111.37 28.75 0 20.7 111.37 84.15 111.37"/></clipPath><clipPath id="clip-path-2" transform="translate(11.73)"><polygon class="cls-1" points="18.21 111.37 101.79 18.02 96.23 111.37 18.21 111.37"/></clipPath><clipPath id="clip-path-3" transform="translate(11.73)"><polygon class="cls-1" points="72.46 111.37 0 42.94 3.26 111.37 72.46 111.37"/></clipPath></defs><g id="Layer_2" data-name="Layer 2"><g id="OBJECTS"><polygon class="cls-2" points="95.89 111.37 40.49 0 32.44 111.37 95.89 111.37"/><g class="cls-3"><g class="cls-4"><line class="cls-5" x1="33.23" y1="48.64" x2="64.91" y2="8.82"/><line class="cls-6" x1="26.56" y1="44.5" x2="58.24" y2="4.68"/></g></g><polygon class="cls-7" points="40.49 0 34.93 111.37 32.44 111.37 40.49 0"/><polygon class="cls-8" points="29.95 111.37 113.52 18.02 107.96 111.37 29.95 111.37"/><g class="cls-3"><g class="cls-9"><line class="cls-5" x1="61.16" y1="70.61" x2="119.28" y2="58.1"/><line class="cls-6" x1="58.21" y1="61.92" x2="116.32" y2="49.42"/></g></g><polygon class="cls-10" points="33.78 111.37 113.52 18.02 29.95 111.37 33.78 111.37"/><polygon class="cls-11" points="84.19 111.37 11.73 42.94 14.99 111.37 84.19 111.37"/><g class="cls-3"><g class="cls-12"><line class="cls-5" x1="6.94" y1="93.55" x2="44.51" y2="59.23"/><line class="cls-6" x1="1.01" y1="88.4" x2="38.58" y2="54.09"/></g></g><polygon class="cls-13" points="11.73 42.94 17.87 111.37 14.99 111.37 11.73 42.94"/></g></g></svg>