<svg width="39" height="12" viewBox="0 0 39 12" fill="none" xmlns="http://www.w3.org/2000/svg">
<path d="M16.8146 11.5355H13.7363L15.6617 0.5H18.7398L16.8146 11.5355Z" fill="#00579F"/>
<path d="M27.9737 0.770606C27.3665 0.547319 26.4035 0.300781 25.2127 0.300781C22.1729 0.300781 20.0322 1.80341 20.0191 3.95171C19.9938 5.53673 21.5517 6.41708 22.7169 6.94558C23.9078 7.48562 24.3127 7.83811 24.3127 8.31948C24.3006 9.05878 23.3503 9.39956 22.4641 9.39956C21.2351 9.39956 20.5766 9.22386 19.5758 8.81255L19.1705 8.63623L18.7397 11.1135C19.4617 11.4184 20.7919 11.6889 22.1729 11.7008C25.4028 11.7008 27.5056 10.2214 27.5305 7.93204C27.5428 6.67579 26.7201 5.71321 24.9466 4.92663C23.87 4.4217 23.2106 4.08122 23.2106 3.56459C23.2232 3.09492 23.7683 2.61386 24.9836 2.61386C25.9844 2.5903 26.7196 2.81327 27.2766 3.03641L27.5551 3.15359L27.9737 0.770606Z" fill="#00579F"/>
<path d="M32.0648 7.62601C32.3183 6.99204 33.2938 4.53837 33.2938 4.53837C33.281 4.56193 33.5468 3.89269 33.6988 3.48185L33.9139 4.43273C33.9139 4.43273 34.4969 7.07427 34.6235 7.62601C34.1424 7.62601 32.6728 7.62601 32.0648 7.62601ZM35.8646 0.5H33.4835C32.7493 0.5 32.1914 0.699414 31.8746 1.41562L27.3022 11.5353H30.5322C30.5322 11.5353 31.0639 10.1733 31.1782 9.87996C31.5326 9.87996 34.6746 9.87996 35.1305 9.87996C35.2188 10.2674 35.4978 11.5353 35.4978 11.5353H38.3479L35.8646 0.5Z" fill="#00579F"/>
<path d="M11.1654 0.5L8.15076 8.02515L7.82134 6.49896C7.26399 4.73794 5.51605 2.82463 3.56543 1.87327L6.32673 11.5238H9.58191L14.4204 0.5H11.1654Z" fill="#00579F"/>
<path d="M5.35144 0.5H0.398812L0.348145 0.722975C4.2115 1.63875 6.77013 3.84619 7.82136 6.49943L6.74471 1.42763C6.56746 0.72282 6.02274 0.523249 5.35144 0.5Z" fill="#FAA61A"/>
</svg>
