<svg width="81" height="23" viewBox="0 0 81 23" fill="none" xmlns="http://www.w3.org/2000/svg">
<path d="M10.516 12.004C11.5613 12.1907 12.448 12.7413 13.176 13.656C13.904 14.5707 14.268 15.6067 14.268 16.764C14.268 17.7533 14.0067 18.6493 13.484 19.452C12.98 20.236 12.2427 20.8613 11.272 21.328C10.3013 21.776 9.172 22 7.884 22H0.1V2.54H7.52C8.84533 2.54 9.984 2.764 10.936 3.212C11.888 3.66 12.6067 4.26667 13.092 5.032C13.5773 5.77867 13.82 6.61867 13.82 7.552C13.82 8.672 13.5213 9.60533 12.924 10.352C12.3267 11.0987 11.524 11.6493 10.516 12.004ZM3.292 10.716H7.24C8.28533 10.716 9.09733 10.4827 9.676 10.016C10.2733 9.53067 10.572 8.84 10.572 7.944C10.572 7.06667 10.2733 6.38533 9.676 5.9C9.09733 5.396 8.28533 5.144 7.24 5.144H3.292V10.716ZM7.604 19.396C8.68667 19.396 9.536 19.1347 10.152 18.612C10.768 18.0893 11.076 17.3613 11.076 16.428C11.076 15.476 10.7493 14.72 10.096 14.16C9.44267 13.6 8.57467 13.32 7.492 13.32H3.292V19.396H7.604ZM31.8767 13.908C31.8767 14.4867 31.8394 15.0093 31.7647 15.476H19.9767C20.0701 16.708 20.5274 17.6973 21.3487 18.444C22.1701 19.1907 23.1781 19.564 24.3727 19.564C26.0901 19.564 27.3034 18.8453 28.0127 17.408H31.4567C30.9901 18.8267 30.1407 19.9933 28.9087 20.908C27.6954 21.804 26.1834 22.252 24.3727 22.252C22.8981 22.252 21.5727 21.9253 20.3967 21.272C19.2394 20.6 18.3247 19.6667 17.6527 18.472C16.9994 17.2587 16.6727 15.8587 16.6727 14.272C16.6727 12.6853 16.9901 11.2947 17.6247 10.1C18.2781 8.88667 19.1834 7.95333 20.3407 7.3C21.5167 6.64667 22.8607 6.32 24.3727 6.32C25.8287 6.32 27.1261 6.63733 28.2647 7.272C29.4034 7.90667 30.2901 8.80267 30.9247 9.96C31.5594 11.0987 31.8767 12.4147 31.8767 13.908ZM28.5447 12.9C28.5261 11.724 28.1061 10.7813 27.2847 10.072C26.4634 9.36267 25.4461 9.008 24.2327 9.008C23.1314 9.008 22.1887 9.36267 21.4047 10.072C20.6207 10.7627 20.1541 11.7053 20.0047 12.9H28.5447Z" fill="#91AFBA"/>
<path d="M38.21 19.424H44.79V22H35.018V2.54H38.21V19.424ZM49.0834 4.528C48.5047 4.528 48.0194 4.332 47.6274 3.94C47.2354 3.548 47.0394 3.06267 47.0394 2.484C47.0394 1.90533 47.2354 1.42 47.6274 1.028C48.0194 0.635999 48.5047 0.439999 49.0834 0.439999C49.6434 0.439999 50.1194 0.635999 50.5114 1.028C50.9034 1.42 51.0994 1.90533 51.0994 2.484C51.0994 3.06267 50.9034 3.548 50.5114 3.94C50.1194 4.332 49.6434 4.528 49.0834 4.528ZM50.6514 6.572V22H47.4594V6.572H50.6514ZM58.5662 9.176V17.716C58.5662 18.2947 58.6969 18.7147 58.9582 18.976C59.2382 19.2187 59.7049 19.34 60.3582 19.34H62.3182V22H59.7982C58.3609 22 57.2595 21.664 56.4942 20.992C55.7289 20.32 55.3462 19.228 55.3462 17.716V9.176H53.5262V6.572H55.3462V2.736H58.5662V6.572H62.3182V9.176H58.5662ZM64.1962 14.216C64.1962 12.6667 64.5135 11.2947 65.1482 10.1C65.8015 8.90533 66.6788 7.98133 67.7802 7.328C68.9002 6.656 70.1322 6.32 71.4762 6.32C72.6895 6.32 73.7442 6.56267 74.6402 7.048C75.5548 7.51467 76.2828 8.10267 76.8242 8.812V6.572H80.0442V22H76.8242V19.704C76.2828 20.432 75.5455 21.0387 74.6122 21.524C73.6788 22.0093 72.6148 22.252 71.4202 22.252C70.0948 22.252 68.8815 21.916 67.7802 21.244C66.6788 20.5533 65.8015 19.6013 65.1482 18.388C64.5135 17.156 64.1962 15.7653 64.1962 14.216ZM76.8242 14.272C76.8242 13.208 76.6002 12.284 76.1522 11.5C75.7228 10.716 75.1535 10.1187 74.4442 9.708C73.7348 9.29733 72.9695 9.092 72.1482 9.092C71.3268 9.092 70.5615 9.29733 69.8522 9.708C69.1428 10.1 68.5642 10.688 68.1162 11.472C67.6868 12.2373 67.4722 13.152 67.4722 14.216C67.4722 15.28 67.6868 16.2133 68.1162 17.016C68.5642 17.8187 69.1428 18.4347 69.8522 18.864C70.5802 19.2747 71.3455 19.48 72.1482 19.48C72.9695 19.48 73.7348 19.2747 74.4442 18.864C75.1535 18.4533 75.7228 17.856 76.1522 17.072C76.6002 16.2693 76.8242 15.336 76.8242 14.272Z" fill="white"/>
</svg>
