<svg width="40" height="40" viewBox="0 0 40 40" fill="none" xmlns="http://www.w3.org/2000/svg">
<rect x="0.5" y="0.5" width="39" height="39" rx="11.5" stroke="black"/>
<path fill-rule="evenodd" clip-rule="evenodd" d="M24.659 10C27.989 10 30.5 12.717 30.5 16.32V23.188C30.5 25.032 29.848 26.698 28.663 27.88C27.6 28.939 26.221 29.5 24.675 29.5H14.822C13.279 29.5 11.901 28.94 10.837 27.88C9.652 26.698 9 25.032 9 23.188V16.32C9 12.717 11.511 10 14.841 10H24.659ZM24.659 11.5H14.841C12.326 11.5 10.5 13.527 10.5 16.32V23.188C10.5 24.631 10.996 25.92 11.896 26.817C12.672 27.592 13.685 28 14.825 28H24.659C24.661 27.998 24.669 28 24.675 28C25.816 28 26.828 27.592 27.604 26.817C28.505 25.92 29 24.631 29 23.188V16.32C29 13.527 27.174 11.5 24.659 11.5ZM26.235 16.1288C26.496 16.4498 26.447 16.9218 26.126 17.1838L21.682 20.7958C21.12 21.2418 20.448 21.4648 19.777 21.4648C19.108 21.4648 18.441 21.2438 17.883 20.8018L13.398 17.1858C13.075 16.9258 13.025 16.4528 13.284 16.1308C13.545 15.8098 14.017 15.7588 14.339 16.0178L18.82 19.6298C19.383 20.0758 20.176 20.0758 20.743 19.6258L25.179 16.0198C25.501 15.7568 25.973 15.8068 26.235 16.1288Z" fill="black"/>
</svg>
