<svg width="20" height="352" viewBox="0 0 20 352" fill="none" xmlns="http://www.w3.org/2000/svg">
<path fill-rule="evenodd" clip-rule="evenodd" d="M6.54685 0.837516C6.17778 1.40409 6.11687 1.42276 5.47867 1.16536C4.24015 0.666063 3.83386 0.782345 3.53427 1.7226C3.19182 2.79802 3.56698 4.56075 4.35589 5.58163C4.65457 5.96826 5.30654 6.85737 5.80442 7.55762L6.70996 8.83081L6.7077 31.1084L6.70544 39.172L5.76201 37.4744C5.0541 36.2006 4.29588 35.2824 2.72462 33.7959C1.57296 32.7065 0.503191 31.8547 0.347531 31.9029C-0.0966638 32.0408 -0.119899 34.4989 0.305797 36.2992C1.02905 39.3572 2.50398 41.7128 5.12425 43.9948L6.71943 45.3841V49.1213V351.267H7.28342H7.8474V31.6767V27.5518L9.75142 26.6644C12.7699 25.2575 15.0892 22.9223 16.2668 20.1043C16.8227 18.7742 16.7757 18.4943 16.0252 18.6662C14.6872 18.9726 12.1053 20.3572 10.7993 21.4689C10.0442 22.1117 9.42679 22.5579 9.42724 22.4605C9.42814 22.1333 11.0486 19.749 12.1768 18.4143C13.6896 16.6242 14.4754 16.1077 15.2076 16.4218C16.3268 16.9013 17.9588 16.5994 19.2963 15.6653C20.1754 15.0514 20.2312 14.4993 19.4617 14.025C19.0005 13.7407 18.9369 13.5993 19.1233 13.2719C19.4962 12.6164 19.3926 12.4163 18.6802 12.4163C18.1541 12.4163 17.9775 12.3028 17.8685 11.8945C17.6445 11.0546 17.2305 10.855 16.4757 11.2221C14.9644 11.9571 13.6068 14.0558 14.0072 15.0374C14.0761 15.2061 13.7268 15.6409 13.1721 16.0772C11.925 17.0577 9.92084 19.5458 8.77098 21.5408L7.85372 23.1323L7.85056 14.5788L7.8474 8.86795L8.56908 7.78849C8.9659 7.19455 9.57229 6.39796 9.91655 6.01834C11.3071 4.48393 11.6191 1.07645 10.384 0.911573C10.104 0.874226 9.5547 0.993908 9.16307 1.17767C8.77144 1.36144 8.43666 1.48748 8.41929 1.45777C7.61369 0.0846374 7.13994 -0.07239 6.54685 0.837516ZM8.08789 2.50709C8.41477 3.43864 8.25348 4.93273 7.74769 5.65887C7.25612 6.36464 6.88096 6.09918 6.48368 4.76509C6.25042 3.98102 6.24704 3.58951 6.46744 2.81457C6.9642 1.06754 7.54398 0.95741 8.08789 2.50709ZM5.35775 1.93034C5.70471 2.10498 5.74035 2.26688 5.57973 2.93934C5.40467 3.67248 5.47596 4.2155 5.94993 5.75394L6.11349 6.28443L5.59507 5.86004C4.83504 5.23787 4.2485 3.88044 4.24286 2.73011C4.23767 1.66318 4.48064 1.48875 5.35775 1.93034ZM10.324 2.73011C10.3183 3.88044 9.73179 5.23787 8.97177 5.86004L8.45335 6.28443L8.61691 5.75394C9.09043 4.21677 9.16216 3.67227 8.98755 2.94146C8.78519 2.09394 9.05929 1.74297 9.93415 1.72854C10.2563 1.72344 10.328 1.90742 10.324 2.73011ZM17.0968 11.8684C17.0968 11.9172 17.1583 12.1082 17.2337 12.2928C17.3239 12.5144 17.2456 12.6285 17.0031 12.6285C16.801 12.6285 16.1772 13.0258 15.6171 13.5115C14.629 14.3683 14.6062 14.3762 14.8465 13.7767C15.1384 13.0487 16.3814 11.7797 16.8026 11.7797C16.9643 11.7797 17.0968 11.8196 17.0968 11.8684ZM18.4503 13.2581C18.4503 13.6679 16.88 14.9271 16.1917 15.0694C15.2555 15.2628 15.1142 15.0779 15.6615 14.3758C16.3694 13.4673 18.4503 12.6334 18.4503 13.2581ZM19.1077 14.6223C19.3168 14.8594 19.2187 15.006 18.6173 15.3557C17.8965 15.7746 15.9688 16.2106 15.9688 15.9547C15.9688 15.8868 16.4004 15.6515 16.9276 15.4314C17.4548 15.2116 18.0258 14.8729 18.1959 14.679C18.5735 14.2487 18.7673 14.2368 19.1077 14.6223ZM15.5176 19.8666C15.5176 20.4374 13.9845 22.7268 12.9221 23.7422C11.877 24.741 9.97295 25.997 9.50372 25.997C9.40401 25.997 10.2789 25.0939 11.4477 23.9898C13.1971 22.3374 13.5017 21.9572 13.1717 21.8379C12.8678 21.7284 12.2826 22.1501 10.7601 23.5754C9.65442 24.6107 8.74978 25.3589 8.74978 25.2384C8.74978 24.8083 10.1076 23.0152 11.1341 22.0902C11.708 21.5727 12.8531 20.8107 13.6786 20.3965C15.32 19.5727 15.5176 19.5158 15.5176 19.8666ZM3.12098 35.3019C3.80949 36.0684 4.69924 37.3248 5.09787 38.094C5.76562 39.382 6.49903 41.7016 6.47873 42.461C6.47399 42.6361 5.71351 41.371 4.78858 39.6494C3.86364 37.9278 3.003 36.5195 2.87576 36.5195C2.27681 36.5195 2.51888 37.3231 3.89703 39.91C4.71797 41.4512 5.35391 42.8131 5.31014 42.9366C5.19802 43.253 3.25093 40.8963 2.43021 39.4508C1.65417 38.0836 0.853988 35.3806 0.853988 34.1255C0.853988 33.3028 0.864817 33.2913 1.36158 33.5967C1.64086 33.7681 2.43247 34.5356 3.12098 35.3019Z" fill="#B0A6BD"/>
</svg>
