<svg width="40" height="40" viewBox="0 0 40 40" fill="none" xmlns="http://www.w3.org/2000/svg">
<rect x="0.5" y="0.5" width="39" height="39" rx="11.5" stroke="black"/>
<path fill-rule="evenodd" clip-rule="evenodd" d="M20.2495 10C24.7985 10 28.4995 13.729 28.4995 18.313C28.4995 23.948 22.0435 29.5 20.2495 29.5C18.4555 29.5 11.9995 23.948 11.9995 18.313C11.9995 13.729 15.7005 10 20.2495 10ZM20.2495 11.5C16.5275 11.5 13.4995 14.557 13.4995 18.313C13.4995 23.092 19.1235 27.748 20.2495 27.996C21.3755 27.747 26.9995 23.091 26.9995 18.313C26.9995 14.557 23.9715 11.5 20.2495 11.5ZM20.2505 15C22.0425 15 23.5005 16.458 23.5005 18.251C23.5005 20.043 22.0425 21.5 20.2505 21.5C18.4585 21.5 17.0005 20.043 17.0005 18.251C17.0005 16.458 18.4585 15 20.2505 15ZM20.2505 16.5C19.2855 16.5 18.5005 17.285 18.5005 18.251C18.5005 19.216 19.2855 20 20.2505 20C21.2155 20 22.0005 19.216 22.0005 18.251C22.0005 17.285 21.2155 16.5 20.2505 16.5Z" fill="black"/>
</svg>
