<svg width="27" height="27" viewBox="0 0 27 27" fill="none" xmlns="http://www.w3.org/2000/svg">
<path d="M24.3 0H2.7C1.215 0 0.0135 1.215 0.0135 2.7L0 27L5.4 21.6H24.3C25.785 21.6 27 20.385 27 18.9V2.7C27 1.215 25.785 0 24.3 0ZM20.25 16.2H6.75C6.0075 16.2 5.4 15.5925 5.4 14.85C5.4 14.1075 6.0075 13.5 6.75 13.5H20.25C20.9925 13.5 21.6 14.1075 21.6 14.85C21.6 15.5925 20.9925 16.2 20.25 16.2ZM20.25 12.15H6.75C6.0075 12.15 5.4 11.5425 5.4 10.8C5.4 10.0575 6.0075 9.45 6.75 9.45H20.25C20.9925 9.45 21.6 10.0575 21.6 10.8C21.6 11.5425 20.9925 12.15 20.25 12.15ZM20.25 8.1H6.75C6.0075 8.1 5.4 7.4925 5.4 6.75C5.4 6.0075 6.0075 5.4 6.75 5.4H20.25C20.9925 5.4 21.6 6.0075 21.6 6.75C21.6 7.4925 20.9925 8.1 20.25 8.1Z" fill="#535353"/>
</svg>
